<?xml version="1.0" encoding="utf-8"?>
<!-- Generator: Adobe Illustrator 15.0.0, SVG Export Plug-In . SVG Version: 6.00 Build 0)  -->
<!DOCTYPE svg PUBLIC "-//W3C//DTD SVG 1.1//EN" "http://www.w3.org/Graphics/SVG/1.1/DTD/svg11.dtd">
<svg version="1.1" id="Layer_1" xmlns="http://www.w3.org/2000/svg" xmlns:xlink="http://www.w3.org/1999/xlink" x="0px" y="0px"
	 width="1224px" height="792px" viewBox="0 0 1224 792" enable-background="new 0 0 1224 792" xml:space="preserve">
<path fill="none" stroke="#000000" stroke-width="2" stroke-linecap="round" stroke-linejoin="round" d="M395.39,572.59
	c-1.24,9.38-10.23,14.15-20.22,10.48c-2.41-0.65-1.56,1.948-3,2.25c-2.02-0.82-7.38,0.64-11.98-0.75
	c-2.06-0.62-2.91-3.642-5.24-2.24c-0.79-3.49-0.11-8.78,2.99-11.24c1.04-0.82,6.23-1.71,8.99-2.24c0.25-0.05,0.71-1.05,1.5-0.75
	c2.06,0.78,0.05-0.438,2.24-0.75c2.28-0.318,4.74,0.29,6.74,0c0.99-0.148,2.12-1.31,3-1.5c1.99-0.42,4.95-0.38,6.74,0
	c0.4,0.092,1.22,1.41,1.5,1.5c2.64,0.802,2.42,0.67,4.49,2.99C393.87,571.17,394.78,571.93,395.39,572.59z"/>
<path fill="none" stroke="#000000" stroke-width="2" stroke-linecap="round" stroke-linejoin="round" d="M493.48,421.33
	c2.029,3.46,3.92,7.06,4.5,11.979c-1.41-0.02-0.9,1.41-1.5,2.24c-0.461,0.642-1.211-0.31-1.5,0.75c-0.641,2.392-0.82,0.69-2.99,2.25
	c-0.58,0.41-0.92,1.932-1.5,2.24c-0.5,0.27-2.61,0.33-3.75,0.75c-2.08,0.77-3.51,1.9-5.99,3c-0.8,0.36-2.57,1.37-2.99,1.5
	c-1.14,0.34-2.63-0.39-3.75,0c-1.42,0.49-2.399,1.74-3.74,2.24c-1.76,0.67-4.209,1.358-5.989,1.5c-0.78,0.06-3.101,0.39-4.49,0
	c-0.9-0.25-1.25-1.5-2.25-1.5c-1.88,0.02-3.1,1.64-4.49,1.5c-2.489-0.25-4.09-1.49-5.989-2.24c-3.601,1.13-5.841,1.72-8.99,0
	c-1.65-2.85-1.13-7.86-3.74-9.74c3.02-2.76,3.311-5.648,6.73-6.74c0.42-0.13,5.35-0.88,6-0.75c0.76,0.16,0.55,1.61,1.489,1.5
	c0.29-0.028,6.12-2.09,5.99-2.25c0.47,0.592,4.19-0.77,4.5-2.988c3.17,1.3,6.43-2.45,6.74-3.75c0.2-0.84-0.44-1.61-1.5-2.99
	c-0.46-0.6-1.021-0.87-1.5-1.5c-1.61-2.1-5.47-6.35-8.24-8.24c-1.16-0.79-5.729-1.97-5.24-4.49c-6.43-0.698-14-6.05-9.729-12.729
	c5.51-1.72,10.649,0.63,13.479,5.24c3.11-0.78,4.79,1.79,6.74,2.25c2.64,0.62,4.87,1.96,7.48,3.738c1.31,0.892,2.39,1.7,3.75,3
	c0.859,0.82,2.26,0.352,5.239,1.5c1.44,0.552,2.41,1.54,3,1.49c5.771-0.51,9.19-11.52,15.721-16.47c1.71-1.3,4.31-0.78,5.239-3
	c0.82,0.95,6.36,3.649,6.74,5.25c0.95,3.92-3.06,6.29-5.24,10.479c-0.81,1.552-0.87,3.062-1.5,4.49
	c-0.609,1.41-1.409,2.37-2.239,3.75c-0.261,0.42-0.37,1.8-0.75,2.24c-0.34,0.39-2.021,0.399-2.25,0.75
	C494.14,418.87,495.31,421.24,493.48,421.33z"/>
<path fill="none" stroke="#000000" stroke-width="2" stroke-linecap="round" stroke-linejoin="round" d="M258.35,401.11
	c-0.75,2.08-0.6,1.93,1.5,2.988c2.15,1.102,1.46,0.771,2.24,2.25c2.07,3.882,6.21,17.392,0,20.972c-2.14,1.229-3.66-0.59-5.99,0.75
	c-1.97-2.802-2.74-6.71-4.49-9.74c-1.43-2.47-3.43-4.19-5.24-7.49c-0.52-0.938-0.12-0.84-0.75-1.5c-0.77-0.8-0.3-2.75-1.5-4.49
	c-2.89-4.17-7.54-5.77-11.23-8.979c-3.52,0.34-3.42,3.91-4.49,5.99c-0.5,0.948-1.77,1.898-2.25,2.988
	c-0.64,1.421-0.13,2.932-0.75,3.75c-0.3,0.392-1.85,0.382-2.25,0.74c-0.34,0.33-0.39,1.21-0.75,1.5c-0.64,0.53-2.52,1.04-2.99,1.5
	c-0.59,0.58-1.1,2.521-1.5,2.99c-0.85,1.03-1.77,1.85-2.24,2.25c-0.79,0.67-3.66,0.09-3,2.25c-2.04,0.54-1.51-1.49-3-1.5
	c-1.41,1.09-3.89,1.1-4.49,3c-1.22-1.33-3.06-2.16-3.74-4.5c-0.39-1.32,0.96-3.54-0.75-4.49c3.34-2.148,3.83-7.16,8.98-7.49
	c0.94-3.64,6.45-6.938,9.74-11.229c0.36-0.47-0.37-1.79,0-2.25c0.36-0.45,1.84-0.29,2.25-0.75c0.36-0.4,1.63-3.22,1.49-4.49
	c-0.18-1.689-2.4-1.689-2.24-3.74c-1.51,0.25-2.35-0.159-2.25-1.5c-1.34-0.1-1.58,0.921-2.99,0.75c1.96-2.77-1.16-7.14,0-10.489
	c0.8-2.33,3.61-1.62,3.74-4.49c0.91,2.29,3.44,0.41,4.49,0.75c0.95,0.3,0.87,1.01,1.5,1.5c1.36,1.03,4.16,0.74,5.24,2.99
	c1.38,0.069,0.15-2.271,0.75-2.99c0.33-0.4,0.97,1.34,0.75,1.49c1.4-0.98,0.2-1.561,1.5-3.74c0,0,1.38-0.62,1.49-0.75
	c0.77-0.88,0.54-1.5,1.5-2.99c0.29-0.439,1.34-0.46,1.5-0.75c0.72-1.28,0.62-4.649,1.5-5.99c0.79-1.21,2.01-1.39,2.99-2.25
	c-0.75-3.939,1.49-5.02,3-8.239c1.97-4.2,0.84-4.87,3.74-6.74c1.73-1.1,4.12-1.811,5.99-0.75c-0.03-0.021,0.32,1.3,0.75,0.75
	c1.55-1.93-0.61,1.15,2.25,0.75c1.36,5.26-0.05,9.1-2.25,13.479c-0.17,0.351-1.42,1.24-1.5,1.5c-0.39,1.311,0.34,2.49-1.49,2.25
	c-0.41,3.33,0.68,5.69-0.75,8.23c-0.59,1.05-2.56,2.23-3.75,3.75c-0.51,0.65-0.23,1.64-0.74,2.24c-0.18,0.2-1.44,0.64-1.5,0.75
	c-0.6,1.02-0.27,2.149-0.75,3c-0.58,1.01-2.7,4.72-2.25,7.489c0.45,2.73,4.15,4.381,5.99,6.74c0.41,0.521,0.94,2.23,1.5,2.99
	C252.64,394.55,254.55,399.69,258.35,401.11z"/>
<path fill="none" stroke="#000000" stroke-width="2" stroke-linecap="round" stroke-linejoin="round" d="M679.2,199.67
	c0.858,3.28,2.3,8.75,0.74,13.48c-0.562,1.71-2.4,3.16-2.99,5.24c-0.41,1.41,0.3,3.05,0,4.49c-0.392,1.87-1.8,3.83-2.25,5.99
	c-0.83,4.02,0.188,8.12-2.99,9.74c0.45,1.79,1.07,3.42,0.75,5.99c-1.84,0.66-0.82,4.18-3.75,3.74c-0.97,3.63-3.31,6.51-5.24,9.74
	c-1.64,2.74-3.81,5.14-5.988,8.24c-2.212,3.13-5.392,7.46-4.49,11.98c-3.82,0.95-3.44,9.15-5.25,13.48
	c-0.23,0.55-1.17,1.05-1.49,1.49c-0.22,0.3,0.25,1.25,0,1.5c-0.15,0.15-1.44-0.17-1.5,0c-0.24,0.65,1.51,1.4,1.5,1.5
	c-0.06,0.46-1.2,1.02-1.5,1.5c-1.35,2.17-2.2,6.77-3.75,9.73c-0.34,0.67-1.25,0.48-1.49,1.5c-0.489,2.08-0.278,1.46-1.5,3
	c-1.028,1.29-1.43,3.81-2.25,6.73c-0.068,0.26-0.43,2.25-0.75,3c-0.148,0.35-1.37,0.47-1.489,0.75
	c-1.051,2.329-1.601,4.069-2.25,6.739c-1.229,5.03-2.729,13.53-4.489,19.471c-0.562,1.89,0.108,3.229-0.75,5.989
	c-0.11,0.351-1.44,1.261-1.5,1.5c-0.67,2.79-1.142,6.41-1.5,8.98c-1.28,9.29,0.25,20,0.75,31.45c0.09,2.02-0.761,3.85-0.75,5.988
	c0.028,3.82,0.068,11.5,0.75,17.23c0.18,1.479,0.398,1.479,0.75,2.24c0.989,2.148-0.57,3.02-0.75,6
	c-0.102,1.688,0.7,3.938,0.75,5.988c0.068,2.74,0.68,6.03,0.75,7.48c0.02,0.46-0.7,0.97-0.75,0.75c0.13,0.51,1.489,2.1,1.5,2.25
	c0.14,2.71-0.67,6.18-0.75,8.99c-0.08,2.58-0.392,4.83,0,7.479c0.76,5.16-0.11,12.63,0.75,18.73c0.229,1.68,0.95,2.31,0.75,5.24
	c-0.011,0.06-0.892,0.068-0.75,0.75c0.39,1.97,0.88,7.778,1.5,11.229c0.58,3.25,1.12,4.26,0.739,8.24
	c-0.369,4.02-0.689,9.688-0.739,12.729c-0.05,2.41,0.898,4.67,0.739,6.74c-0.141,1.811-1.221,3.39-1.489,5.24
	c-0.771,5.16-0.32,10.62-1.5,15.72c-0.42,1.811-1.682,4.01-2.25,5.99c-1.16,4.09-1.9,7.38-3.74,11.24
	c-0.35,0.729-1.11,1.34-1.5,2.238c-0.26,0.62-0.28,2.17-0.75,3c-0.6,1.051-2.17,1.682-2.99,2.99c-0.63,1.01-0.93,2.99-1.5,3.75
	c-0.739,0.98-2.51,2.67-3.75,3.74c-1.38,1.2-0.39,0.67-1.489,3c-0.12,0.24-2.471,2.109-3,2.99c-1,1.68-1.221,3.68-2.25,5.238
	c-0.181,0.29-1.381,0.512-1.49,0.75c-0.44,0.972-0.66,2.53-1.5,3.75c-0.44,0.631-1.83,0.881-2.25,1.49c-0.47,0.71-0.141,2.44-0.75,3
	c-1.13,1.04-3.47,1.061-5.24,2.25c-0.22-1.79-2.53-2.18-3.74-3c-1.609-1.08-2.89-1.24-3.75-2.99c0.721-3.278,2.301-5.699,5.25-6.738
	c0.48-1.722,1.5-4.392,2.99-5.99c0.76-0.82,2.09-2.73,3-4.5c0.44-0.851,0.17-1.59,0.75-2.24c1.32-1.53,1.16-1.77,2.24-5.25
	c2.31,0.561,1.439-2.05,3.75-1.49c4.59-11.05,14.331-20.64,13.47-33.699c-0.18-2.859,1.28-6.689,1.5-9.739
	c0.09-1.21-0.74-1.98-0.75-2.24c-0.021-0.8,0.54-5.39,0.75-8.24c0.28-3.688,0.33-5.449-0.75-9.729c-0.44-1.79-1.33-4.24-1.49-5.99
	c-0.12-1.24,0.74-2.56,0.74-3.75c0.01-4.15-0.47-9.39-0.74-14.979c-0.25-5-1.68-8.051-1.5-14.971c0.04-1.479,0.86-3.2,0.75-4.5
	c-0.09-1.01-1.489-1.979-1.5-2.99c-0.01-2.578,0.82-6.72,0.75-11.229c-0.029-1.51-0.79-2.061-0.75-3c0.011-0.24,0.8-1.25,0.75-2.25
	c-0.22-4.58-1.319-8.79-1.5-13.47c-0.04-1.182,0.74-2.552,0.75-3.75c0.091-7.42-1.859-15.052-2.25-22.46
	c-0.069-1.521,0.681-2.802,0.75-4.5c0.07-1.602-0.72-2.67-0.75-4.49c-0.01-1.19,0.69-2.58,0.75-3.74
	c0.061-1.149-0.75-2.06-0.75-2.25c0-0.62,0.8-0.74,0.75-1.5c-0.14-2.28-0.2-10.04,0-17.22c0,0.189,1.23-0.37,0.75-0.75
	c-1.649-1.33,0.45-1.65,0.75-3.74c0.86-5.899,0.521-11.25,2.25-15.729c1.71-4.431,3.271-10.28,4.49-16.471
	c0.57-2.92,1.25-5.39,2.25-8.239c0.8-2.301,2.06-6.101,2.24-10.49c3.41-1.681,4.358-6.54,5.989-10.48c0.159-0.37,1.421-1.22,1.5-1.5
	c0.561-1.86,0.449-2.06,1.5-3.74c0.479-0.78,1.261-4.03,2.989-2.25c-1.75-3.46,2.12-5.66,3-8.24c0.65-1.9,0.21-4.15,0.75-5.99
	c0.55-1.87,1.602-5.03,2.99-7.48c0.31-0.55,1.33-1.14,1.5-1.5c0.38-0.83-0.33-2.15,0-3c0.17-0.42,1.18-0.86,1.5-1.5
	c1.16-2.29,2.3-4.95,3.74-7.48c0.39-0.68,1.148-0.25,1.5-0.75c0.24-0.34-0.23-1.16,0-1.5c0.35-0.53,1.27-1.09,1.5-1.5
	c1.13-2.04,0.35-5.21,3.74-4.49c-0.33-0.67-0.65-1.34-1.49-1.5c0.8-0.65,1.318-1.44,2.24-2.24c1.738-1.53,1.67-1.82,3-4.5
	c0.25-0.51,1.398-1.22,1.488-1.5c0.392-1.11-0.35-2.61,0-3.74c0.102-0.31,1.472-1.32,1.5-1.5c0.102-0.54-0.84-0.78-0.75-1.49
	c0.521-4.24,2.99-11.67,3-17.23c-0.648-0.62-1.08-2.27-2.25-2.99c-0.729-0.45-0.59,0.72-0.75,0.75c-0.818,0.16-1.31-1.46-2.238-1.5
	c-1.262-0.05-2.172,0.57-3,1.5c-4.012-0.43-5.15-0.52-9.73,0c-0.95,0.18-0.76,1.48,0,1.49c-2.15,0.01-2.33,1.34-4.5,3
	c-0.89,0.69-2.67,1.5-3.74,2.99c-1.77,2.48-1.438,2.54-4.489,4.5c-0.301,0.19-0.489,1.37-0.75,1.49c-0.561,0.27-1.739-0.34-2.25,0
	c-0.141,0.1-0.521,1.31-0.75,1.5c-0.789,0.68-2.391,1.18-3.739,2.25c-2.24,1.77-3.82,4.32-5.99,5.99c-1.44,1.1-3.08,1.2-4.5,2.25
	c-1.8,1.32-2.95,3.36-4.49,4.49c-0.479,0.35-1.7-0.26-2.25,0c-0.34,0.16-0.46,1.36-0.739,1.5c-1,0.47-2.67-0.29-3.75,0
	c-0.53,0.14-2.16,1.04-2.99,1.49c-2.47,1.34-5.16,2.34-6.74,5.25c-2.38-1.61-3.74,1.67-5.25,2.24c-0.86,0.33-2.09-0.22-2.99,0
	c-0.93,0.23-1.8,1.06-3,1.5c-2.279,0.84-4.319,1.48-6.739,2.25c-1.16,0.37-2.521,0.35-3.74,0.75c-1.391,0.44-3.08,2.06-5.99,2.24
	c-1.59,0.1-1.58-1.38-2.25-1.5c-0.49-0.08-1.26,0.86-2.24,0.75c-1.17-0.13-1.3-0.64-2.25-0.75c-1.02-0.1-2.27,0.75-2.25,0.75
	c-0.729-0.09-0.659-1.24-1.489-1.49c-1.051-0.32-2.311,0.73-2.25,0.74c-0.841-0.21-0.99-1.29-1.5-1.49
	c-1.101-0.44-3.811-1.32-5.24-1.5c-1.79-0.23-4.05,1.04-5.99,0.75c-2.27-0.34-5.07-2.62-7.49-3c-0.81-0.12-1.5,0.75-1.5,0.75
	c-0.529-0.11-2.069-1.49-2.239-1.5c-1.69-0.08-2.82,1.02-4.5,0.75c-1.811-0.29-3.311-1.76-5.24-2.24c-0.54-0.14-0.79,0.93-1.5,0.74
	c-0.24-0.06-4.34-1.57-5.99-1.49c-0.67,0.03-1.14,0.93-2.24,0.75c-0.67-0.12-1.29-1.42-2.25-1.5c-7.37-0.6-14.47,0.34-22.46,3.74
	c-1.46-1.54-4.83-1.17-6.74-2.24c-3.26,1.17-7.8,4.42-11.239,2.99c-0.94,0.19-0.75,1.49,0,1.5c-2.11,0.94-8.34,1.29-11.23-0.75
	c-3.989,2.95-11.03,1.85-17.22,1.5c-1.3-0.08-2.47,0.77-3.75,0.75c-2.47-0.04-4.58-2.1-6.74-2.25c-1.09-0.08-5.87,1.09-8.229,0
	c-1.761-0.81-3.66,0.55-5.99,0c-4.37-1.02-8.23-5.26-12.73-3c0.141-3.13-3.569-2.42-5.25-3.74c0.44-2.69-0.87-3.62-1.49-5.24
	c-3.04-0.25-5.38-0.11-8.24-0.75c-0.73-0.16-2.14-1.34-3-1.5c-1.31-0.23-1.91,0.74-2.24,0.75c-0.46,0.01-1.39-0.63-2.25-0.75
	c-2.83-0.38-5.95-0.18-5.99-2.99c-0.54,0.17-9.97-1.07-8.99-0.75c-1.85-0.6-2.34-1.99-3.74-2.25c-2.28-0.42-5.22,0.28-7.49,0
	c-1.52-0.18-1.98-1.09-2.99-1.5c-0.25-0.1-1.22,1.1-1.5,0.75c-0.12-0.14,0.14-1.46,0-1.49c-1.25-0.35-1.63,0.97-3,0.74
	c-0.64-0.1-1.33-1.33-2.24-1.49c-1.45-0.26-2.91-0.42-4.5-0.75c-3.37-0.71-4.79-0.49-8.23-0.75c-0.92-0.07-2.24-0.75-2.25-0.75
	c-0.36,0-4.27,2.08-2.25-0.75c-1.72-1.24-2.05,1.45-2.24,1.5c-1.04,0.23-5.64-1.43-7.49-1.5c-1.97-0.07-3.84,0.84-5.99,0.75
	c-2.74-0.11-4.95-2-8.99-1.5c0.15-0.02-0.35,1.25-0.75,0.75c0.23,0.29-3.42-1.97-5.99-0.75c-0.07,0.03-0.83,1.49-0.75,1.5
	c-5.51-0.37-10.74-5.13-15.72-3c-2.35-2.36-8.32-3.49-11.98-2.24c0.18-0.82,1.49-0.51,1.49-1.5c-3.12,0.17-3.53-1.22-5.99,0
	c1.22-1.5-1.96-3.11-2.99-3.74c-0.74-0.46-1.96-0.99-3-1.5c-0.41-0.2-1.96,0.33-2.24,0c-0.16-0.17,0.18-1.42,0-1.5
	c-1.13-0.48-3.27,0.4-4.5,0c-0.49-0.16-1.67-1.71-2.99-2.25c-2.88-1.15-2.95-0.69-4.5-2.24c-0.71-0.72-3.09-0.48-2.99-3
	c-1.4,1.59-1.12-0.42-2.25-0.75c-1.51-0.44-4.18,0.22-5.99-0.75c-0.43-0.23,1.38-1.02,1.5-0.74c-0.58-1.38-2.66-0.95-4.49-2.25
	c-0.42-0.3-0.06-2.16-1.5-1.5c-0.87-1.11-0.87-1.89,0-2.99c-0.56,2-2.7-1.12-3-0.75c-1.59,1.99-0.91-0.52-2.24-0.75
	c1,0.17-3.64,0.56-3,0.75c-2-0.6-3.91-2.73-6.74-3.75c-1.56-0.56-3.77-0.12-5.24-0.75c-0.81-0.34-1.53-1.84-2.25-2.24
	c-0.57-0.33-1.65,0.28-2.24,0c-0.34-0.16-0.48-1.38-0.75-1.5c-3.75-1.66-7.89-0.54-8.99-4.49c-1.19,0.98-2.87-0.24-4.49-0.75
	c-1.4-0.44-4.05-0.87-5.24-1.5c-0.33-0.17-0.48-1.38-0.75-1.5c-1.24-0.56-2.83,0.13-3-2.24c-3.33-0.66-6.94-1.05-8.23-3.75
	c-0.77,0.49-0.78,1.72-2.25,1.5c0.32-1.57-0.51-1.98-0.75-3c-2-0.06-3.51-2.47-5.24-3.74c-1.4-1.03-2.63,1-2.25-3
	c-2.11-0.61-1.94,1.06-3.74,0.75c0.21-1.33-0.71-1.53-0.75-0.75c-1.07-1.74-1.78-1.87-3.74-2.99c-0.33-0.18-1.1-0.25-0.75,0
	c-2.18-1.52-2-3.47-5.25-3.74c-0.99-0.54-0.5-2.75-1.49-3.75c-0.23-0.22-1.32,0.25-1.5,0c-0.5-0.68-0.22-0.95-0.75-1.5
	c-0.1-0.1-0.72-0.7-0.75-0.75c-0.88-1.29-1.44-4.61-4.49-4.49c-0.78-0.68,0.2-2.79-0.75-3.74c-0.17-0.17-1.41,0.2-1.5,0
	c-0.34-0.76,0.7-1.6,0.75-1.5c-0.38-0.81-1.1-0.19-1.5-0.75c-0.75-1.06-0.07-1.87-1.49-2.99c-1.12-0.88-1.54-1.62-3-3.75
	c-0.32-0.47-1.27-0.4-1.5-0.75c-0.33-0.5,0.37-1.77,0-2.24c-0.62-0.81-2.29-0.73-2.99-1.5c-0.56-0.61-0.31-2.38-0.75-3
	c-0.41-0.56-1.04-0.82-1.5-1.49c-0.36-0.55-0.29-1.51-0.75-2.25c-0.14-0.24-1.29,0.2-1.5,0c-0.25-0.25,0.21-1.2,0-1.5
	c-0.41-0.59-1.47,0.06-1.49,0c-0.12-0.28,1.1-1.16,0.74-1.5c-0.19-0.18-3.69-1.25-3.74-1.49c-0.03-0.15,0.1-1.47,0-1.5
	c-1.64-0.58-5.29-0.51-6.74,0c-0.27,0.09,0.06,0.91-0.75,0.75c-1.31-0.27-0.55-0.91-2.24,0.75c-0.4,0.38-1.09,0.36-1.5,0.75
	c-0.71,0.66-0.89,1.46-1.5,2.24c0,0.01-0.75,1.5-0.75,1.5c-0.24,0.17-1.34-0.23-1.5,0c-0.63,0.94-0.08,2.52-0.74,3.74
	c-0.58,1.06-1.5,1.03-3,3c0.3-0.4,0.98,0.51,0.75,0.75c-0.83,0.83-1.51,0.45-2.25,1.5c-0.29,0.41-0.36,1.84-0.75,2.24
	c-0.54,0.56-0.99,0.03-1.49,0.75c-0.51,0.72-0.19,1.64-0.75,2.25c-1.29,1.38-0.6,0.79-1.5,3.74c-0.19,0.62-2.25,3.18-2.25,5.24
	c0,0.45,0.71,0.95,0.75,0.75c-0.46,2.41-1.93,4.23-2.24,5.99c-0.88,4.88-0.11,10.87-0.75,18.72c-0.19,2.3-1.64,4.47-1.5,6.74
	c0.15,2.59,3.97,4.41,1.5,6.74c0.6-0.39,1.21-0.78,2.24-0.75c0.29,0.87-0.38,2.18,0,3c0.1,0.2,1.33-0.17,1.5,0
	c0.25,0.25-0.18,1.19,0,1.5c0.38,0.63,1.04,0.86,1.5,1.49c0.41,0.58,0.27,1.61,0.75,2.25c0.33,0.46,1.24,0.39,1.49,0.75
	c0.2,0.28-0.25,1.28,0,1.5c0.23,0.2,2.13,0.55,2.25,0.75c0.23,0.38-0.49,1.94,0,2.99c0.48,1.02,1.72,1.21,2.25,2.25
	c0.45,0.89,0.24,2.76,0.75,3.74c0.17,0.33,1.37,0.48,1.49,0.75c0.17,0.38-0.23,1.17,0,1.5c0.36,0.5,1.22,0.36,1.5,0.75
	c0.51,0.72-0.21,2.68,2.25,2.24c-0.75,3.05,1.85,5.3,2.99,8.24c0.48,1.23-0.01,2.18,0,2.25c0.36,1.43,1.26,3.24,2.25,5.24
	c0.83,1.67,1.35,2.96,2.25,6.74c0.31,1.32,0.42,1.54,0.75,2.25c1.06,2.3,0.04,4.54,0.74,8.98c0.22,1.37,1.19,2.4,1.5,3.75
	c0.51,2.2,0.23,4.52,0.75,6.74c0.26,1.12,0.02,2.31,0,2.24c0.52,1.92,1.85,2.81,2.25,4.49c0.42,1.81,0.29,3.9,0.75,6
	c0.33,1.55,1.36,3.38,1.49,4.49c0.17,1.42-0.72,2.95-0.75,4.49c-0.02,1.21,0.73,1.95,0.75,2.25c0.08,1.13-0.92,1.42-0.75,2.24
	c0.55,2.51,2.25,4.89,3.75,6.74c-0.02,0.73-0.92,0.59-1.5,0.75c3.65,1.86,3.45,6.26,4.49,9.74c0.57,1.89,1.87,4.03,2.25,5.99
	c0.33,1.68-0.19,3.54,0,5.24c0.56,4.899,2.35,10.3,3.75,16.479c0.15,0.7,1.69,2.01,1.49,2.99c-0.03,0.18-0.91-0.01-0.75,0.75
	c0.33,1.54,1.15,3.02,1.5,4.49c0.3,1.239,0.6,2.479,0.75,3c0.88,2.979,0.81,7.66,1.5,12.729c0.23,1.74,1.23,3.28,1.5,5.24
	c0.29,2.16,0.06,4.14,0.74,5.99c0.36,0.97-0.03,1.34,0,1.5c0.46,2,1.35,2.399,1.5,3.739c0.14,1.23-0.75,2.44-0.75,3.75
	c0.04,6.771,2.87,14.841,3,21.711c0.02,1.34-0.91,1.59-0.75,3c0.25,2.188,1.95,3.948,2.25,5.988c0.15,1.051-0.74,2.65-0.75,3.74
	c-0.01,1.23,0.64,1.271,0.75,2.25c0.26,2.49-1.43,2.36,0.75,3.74c-0.32,4.06-0.92,7.688,0,13.479c-0.03-0.14,1.25,0.352,0.74,0.75
	c-0.18,0.15-0.79,1.71-0.74,3c0.03,1.15,0.8,1.352,0.74,2.24c-0.04,0.63-0.78,0.73-0.74,1.5c0,0.09,0.74,0.86,0.74,1.5
	c0,0.78-0.75,1.45-0.74,1.5c0.1,1.69,1.38,3.351,1.49,5.24c0.06,0.89-0.86,2.149-0.75,2.99c0.09,0.63,1.67,2.898,1.5,3.75
	c-0.03,0.17-0.94-0.012-0.75,0.75c0.29,1.108,1.34,1.979,1.5,2.988c0.5,3.051-0.1,6.54,0.75,9.74c0.19,0.71,1.38,2.19,1.5,2.99
	c0.18,1.279-0.76,1.63-0.75,3c0.02,4,2.58,11.899,2.99,15.72c0.13,1.12,0.84,4.08,0.75,4.5c-0.03,0.181-0.86,0-0.75,0.74
	c0.18,1.16,1.21,2.399,1.5,3.75c0.78,3.609,0.6,8.109,1.5,10.479c0.21,0.561,1.42,0.521,1.5,0.75c0.35,1.141-0.34,2.601,0,3.75
	c0.47,1.59,2.41,3.79,2.99,5.989c0.48,1.78,0.53,4.74,0.75,6.74c0.12,1.021,0.75,2.939,0.75,2.99c0.08,2.31-0.73,5.029,2.25,7.489
	c0.12,2.09-0.18,3.811,0,5.239c0.2,1.641,0.83,1.181,1.49,3c0.01,0.011-1.43,2.08,0.75,1.49c0.1,1.351-0.91,1.58-0.75,3
	c0.19,1.64,1.21,1.03,1.5,2.25c1.26,5.28-0.03,13.41,4.49,15.72c-1.07,4,1.35,13.19,4.5,16.48c0.94,0.979,1.26,4.739,2.24,6.739
	c0.59,1.181,1.11,2.091,1.5,2.989c1.03,2.41,1.63,5.011,2.25,5.99c0.73,1.17,2.31,2.3,3.74,3.75c0.17,0.17,0.58,1.42,0.75,1.49
	c0.29,0.14,1.3-0.221,1.5,0c0.56,0.619,0.42,3.22,2.25,3c0.24-0.03,1.18-0.37,0.74-0.75c0.97,0.83,2.08,1.909,3,3
	c0.24,0.27-0.26,1.239,0,1.489c0.24,0.239,1.28-0.25,1.5,0c0.37,0.431,0.33,1.87,0.75,2.25c1.11,1.021,5.9,0.88,5.24,4.489
	c1.43-1.398,1.35,0.45,3.74,0c-0.3,1.811,1.37,1.631,0.75,3.75c0.69-0.289,1.77-1.229,3,0c0.15,0.15-0.18,1.431,0,1.5
	c1.17,0.44,2.02-1.5,2.24,0c2.34-0.398,0.36,1.03,0.75,1.49c0.53,0.62,2.51,0.07,2.25,1.5c5.42,1.311,10.97,2.51,14.23,5.99
	c2.51,0.979,6.1,0.88,6.74,3.75c1.62-1.681,2.71,0.85,4.49,0.739c0.21-0.01,0.71-0.939,1.5-0.739c1.84,0.46,3.23,2.369,5.24,2.989
	c1.25,0.391,2.85-0.3,4.49,0c2.3,0.42,4.6,2,6.74,2.25c1.12,0.13,8.48-0.58,8.24,0.75c0.07-0.391-1.27,0.681-0.75,0.75
	c1.53,0.17,3-0.819,4.49-0.75c2.59,0.109,5.13,1.069,7.49,1.49c0.69,0.13,2.4,0.75,2.25,0.75c0.58,0,0.78-0.91,1.49-0.75
	c1.13,0.26,4.2,3.029,6,0.75c0.69,0.55,1.13,1.359,1.49,2.25c2.31,0.56,1.44-2.061,3.75-1.5c0.47,1.369,2.55,1.1,3.74,2.25
	c1.19,1.14,1.58,0.029,2.25,0c1.21-0.061,3.95,1.659,5.99,2.239c0.24,0.07-0.04,0.91,0.75,0.75c0.1-0.021,0.07-1.09,0.75-0.75
	c1.28,0.66,2.24,2.601,3.74,3c1.12,0.3,1.11-0.729,1.5-0.75c0.36-0.021,1.81,0.54,3.74,0.75c2.71,0.29,10.69,0.62,11.98,2.25
	c1.18,1.479,7.09,0.261,10.49,0.74c3.23,0.46,6.62,2.039,9.73,2.25c2.17,0.149,4.34-0.86,6.74-0.75c5.45,0.26,11.42,0.649,16.48,0
	c1.63,0.14,2.38-0.61,2.24-2.24c2.96,0.899,6.04-0.09,8.99,0c2.7,0.08,4.86,0.399,8.24,0c1.96-0.239,1.3,0.05,2.99,0
	c0.98-0.04,2.41-0.819,3-0.75c1.31,0.149,1.65,1.41,2.99,1.49c2.351,0.159,5.13-0.711,7.49-0.74c0.73-0.01,2.16,0.8,3,0.74
	c-0.05,0.01,10.08-1.15,9.73,0.75c-0.16,0.869-1.12,0.25,2.25,0c2.3-0.16,4.27,0.659,6.739,0.75c1.08,0.039,2.25-0.7,3.74-0.75
	c1.74-0.051,3.5,1.51,5.24,1.5c2.24-0.011,4.37-1.37,6.74-1.5c-0.21,0.021,0.35,0.75,0.75,0.75c0.59,0,0.779-0.74,0.75-0.75
	c2.33,0.119,4.779,0.819,7.489,0.75c4.32-0.101,7.721-0.17,12.73,0c2.74,0.1,4.38-0.7,7.49,0c0.47,0.109,0.89,0.909,1.5,0.75
	c0.22-0.061-0.04-0.881,0.739-0.75c2.141,0.35,4.32,1.38,5.99,1.5c1.32,0.09,2.75-0.75,3-0.75c1.8-0.021,6.38,0.729,9.73,0
	c1.14-0.24,2.42-1.33,3.75-1.5c3.279-0.4,5.399,0.521,8.99,0c0.619-0.091,0.72-0.75,1.489-0.75c0.61,0,0.75,0.859,1.5,0.75
	c1.08-0.15,1.53-1.15,3-1.49c3.34-0.779,5.66-0.109,8.23-2.25c0.22-0.18,0.55-1.41,0.75-1.5c0.35-0.16,1.21,0.24,1.5,0
	c0.67-0.54,0.5-1.819,1.5-2.989c1.09-1.301,3.28-1.591,4.489-3c0.44-0.521,0.311-1.04,0.75-1.5c0.131-0.131,2.011-3.69,2.25-4.49
	c0.561-1.891-1.05-3.471-0.75-5.239c-0.06,0.31,1.48-4.711,5.24-4.49c2.12,1.62,0.601,3.689,0.75,5.99
	c0.12,1.97,0.36,4.76,0.75,6.739c0.63,3.24-0.18,4.38-1.5,8.979c-1.729,6.011-1.79,8.471-7.49,11.24
	c-2.09,1.01-5.3,0.97-8.239,2.239c-1.641,0.71-3.5,2.761-5.99,3.75c-1.25,0.49-3.021,0.811-4.49,1.49
	c-1.88,0.869-6.359-0.15-9.739,0c-4.021,0.18-8.37,1.5-11.23,1.5c-1.78,0-2.05-1.25-3.74-1.5c-0.43-0.061-1.87,0.75-3,0.75
	c-2.109,0-3.83-0.051-5.99,0c-2.34,0.06-6.46-1.101-8.979,1.5c-3.78-2.12-7.68-0.729-12.73-0.75c-3.79-0.011-7.79-2.021-13.479-2.25
	c-0.67-0.021-1.66,0.85-3,0.75c-1.141-0.08-1.35-0.761-2.25-0.75c-1.49,0.029-2.05,1.329-3.74,1.5c-0.88,0.09-8.57-0.721-9.729-2.24
	c-1.601,1.359-4.08,0.67-4.5,1.49c-3.54-2.261-8.07-1.221-11.23,0.75c-1.58-0.671-3.33-1.16-4.49-2.24
	c-1.35-0.72-1.859,1.46-2.25,1.49c-1.2,0.119-3.6-1.33-5.24-1.49c-1.08-0.109-1.14,0.721-1.5,0.74c-0.6,0.04-0.75-0.881-1.5-0.74
	c-1.47,0.261-1.8,1.17-3.74,1.49c-1.08-1.41-4.82-0.171-4.49-2.99c-1.18-0.22-0.25,1.811-0.75,2.24c-0.13,0.109-1.11-0.79-1.5-0.74
	c0.26-0.04-5.49,1.49-6.74,1.49c-0.61,0-0.74-0.841-1.5-0.75c-0.69,0.09-1.9,1.449-2.24,1.5c-1.18,0.159-1.39-0.94-2.25-0.75
	c-1.19,0.271-1.86,1.329-3,1.5c-5.74,0.869-12.43,1.1-17.97,0c-1.17-0.229-1.49-0.19-1.5-1.5c-4.16,0.909-8.89,1.51-12.729,0
	c-1.97-0.771-8.39-2.761-12.73-2.99c-2.14-0.12-4.65,0.591-8.23,0c-1.47-0.239-3.48-0.431-4.5-0.75c-0.69-0.22-2.74-0.729-2.24-2.25
	c-0.46,1.04-2.89,0.12-3,1.5c-1.85-2.62-6.75-1.26-10.48-2.989c-1.06-0.5-0.84,0.01-1.5-0.75c-1.75-2.03-0.21-0.2-3.74-0.75
	c-2.52-0.4-8.94-5.24-11.99-1.5c-1.85-0.391-2.66-1.83-3.74-3c-2.11,0.76-1.88,1.1-3,1.5c-1.16-2.011-3.64-1.61-7.48-2.25
	c-0.75-0.12-1.83-1.351-3-1.49c-1.53-0.189-3.92,2-2.25-0.75c-1.38-0.43-2.52,0.851-3.74,0.75c-1.22-0.101-1.71-1.239-2.99-1.5
	c-1.25-0.25-2.33,0.859-3.75,0.75c-1.22-0.101-1.87-1.391-2.99-1.5c-2.13-0.21-4.83,0.49-6.74,0c-3.97-1.01-6.13-4.561-10.49-3.739
	c-0.67-1.33-1.81-2.19-2.24-3.75c-3.51,0.13-2.49,1.93-5.99,0.75c-2.17-0.33-3.42-1.58-3.75-3.74c-2.2,2.529-3.74-0.899-5.24-1.5
	c-0.6-0.239-1.69,0.319-2.25,0c-1.55-0.909-3.61-3.721-5.24-5.239c-0.9-0.851-1.75-1.811-4.49-1.5c-0.36-2.891-4.33-2.17-4.5-5.24
	c-1.51,0.641-2.58-0.91-3.74-1.5c-0.99-0.5-2.94-0.91-3.74-1.5c-0.34-0.25-0.47-1.88-0.75-2.24c-0.88-1.148-2.8-1.84-4.5-3
	c-0.74-0.51-0.78-1.699-2.24-1.5c0.27-1.27-0.59-1.409-1.5-1.489c-0.21-1.21,0.71-1.29,0.75-2.25c-3.11-2.34-5.57-3.29-7.49-7.489
	c-0.28-0.62,0.29-1.631,0-2.25c-0.11-0.23-1.45-0.591-1.5-0.75c-0.32-1.17,0.58-3.011,0-4.49c-0.34-0.859-1.12-0.17-1.49-0.75
	c-0.35-0.53,0.32-1.689,0-2.24c-0.62-1.06-1.91-1.529-2.25-2.25c-0.5-1.06-0.32-3.39-0.75-4.489c-0.57-1.471-2.07-2.37-2.25-3
	c-0.45-1.601,0.25-3.59,0-5.239c-0.17-1.17-1.51-4.41-2.24-5.99c-0.53-1.149-1.68-5.88-2.25-8.24c-0.28-1.159,0.92-0.76,0-2.989
	c-0.39-0.939-1.22-1.221-1.5-2.25c-0.56-2.109-1.32-5.341-1.49-7.489c-0.1-1.19,0.96-2.511,0.74-3.74
	c-0.27-1.58-1.82-2.939-2.24-4.5c-1.12-4.149-0.59-8.95-1.5-12.729c-0.37-1.521-1.04-1.08-1.5-2.239c-0.89-2.23-1.25-7.25-1.5-11.23
	c-0.59-2.41-2.71-3.279-3.74-5.25c1.86-3.72-0.68-6.92-1.5-10.479c-0.44-1.94,0.23-3.932,0-5.99c-0.18-1.65-1-0.99-1.5-3
	c0.03,0.1,0.97-0.94,0.75-1.49c-0.1-0.26-0.63-0.069-0.75-0.75c-0.51-3.09-0.12-6.3-0.74-8.989c-0.57-2.421-2.93-5.011-0.75-8.979
	c0.29-0.891-1.32-0.391-1.5-0.75c-0.2-0.41,0.95-0.88,0.75-1.5c-0.12-0.351-1.46-2.021-1.5-2.25c-0.06-0.391,0.73-1.38,0.75-2.24
	c0.03-1.58-0.48-4.56-0.75-5.99c-0.2-1.1-1.34-2.619-1.5-3.75c-0.06-0.479,0.8-1.289,0.75-2.25c-0.32-5.92-2.7-12.479-1.5-17.97
	c-0.22-1.52-1.5-1.99-2.24-2.99c-0.47-4.699,0.62-9.26,0-14.229c0.02,0.149-1.25-0.351-0.75-0.75c1.38-1.101,0-1.53,0-2.25
	c0-1.261,0.36-2.431,0-5.24c-0.07-0.57,0.95-0.78,0.75-1.5c-0.05-0.17-1.49-0.689-1.5-0.74c-0.14-1.34,0.9-1.58,0.75-3
	c-0.44-4.159-1.03-7.76-1.5-13.479c-0.02-0.2-0.43-6.42-0.75-6.74c-0.1-0.1-1.48,0.1-1.5,0c-0.09-0.73,1.51-0.57,1.5-1.5
	c-0.01-1.11-1.16-1.83-1.5-3.74c0.02,0.08,1-2.95,0.75-4.489c0.01,0.02-0.52-4.351-0.75-5.99c-0.37-2.74-1.3-4.11-1.49-8.24
	c0-0.04-0.88-0.1-0.75-0.75c0.16-0.81,0.58-1.56,0-3.74c-0.14-0.54-0.83-0.819-0.75-1.5c0.03-0.27,0.65-1.12,0.75-0.75
	c-0.53-2.029-1.95-2.76-2.25-4.49c-0.22-1.279,0.82-1.619,0.75-3c-0.07-1.42-1.27-3.35-1.5-5.239c-0.14-1.2,0.28-2.57,0-3.75
	c-0.39-1.69-1.68-2.851-2.24-4.49c-0.39-1.11,0.25-2.59,0-3.74c-0.22-0.989-1.39-3.51-2.25-5.239c-0.21-0.431-1.46-1.341-1.5-1.5
	c-0.1-0.4,0.87-1.33,0.75-2.25c-0.02-0.16-1.5-3.141-1.5-3.74c0-0.58,0.92-0.78,0.75-1.5c-0.39-1.7-1.57-3.46-2.24-5.24
	c-0.42-1.09-0.22-1.93-0.75-3c-0.24-0.48-1.43-1.26-1.5-1.5c-0.73-2.29-0.61-4.98-1.5-7.48c-0.24-0.68-0.24-2.94-0.75-3.75
	c-0.28-0.44-2.12-0.78-2.24-1.5c-0.08-0.43,0.78-1.33,0.74-2.24c-0.02-0.58-0.72-1.67-0.74-1.5c0.33-2.2,2.19-2.92,2.24-4.49
	c0.13-3.89-1.69-9.23-2.24-11.24c-0.56-2-0.81-4.07-3-5.99c0.15-4.76,0.02-14.04-3.74-17.97c0.11,0.12-0.86-1.13-0.75-0.75
	c-0.36-1.3,2.93-1.75,0-2.99c0.13-3.38,0.36-6.86-3-6.74c0.79-1.96,0.43-3.31-0.75-6.74c-0.34-0.99-0.47-1.65-0.75-2.25
	c-0.32-0.71-1.72-1.23-2.24-2.24c-0.6-1.17-0.15-2.07-0.75-3c-0.69-1.05-1.52-0.69-2.25-1.5c-0.63-0.7,0.52-2.94-1.49-2.24
	c-0.21-0.78-0.2-3.42,0-3c-0.18-0.38-2.57-1.27-3-2.25c-0.24-0.54,0.35-1.77,0-2.24c-0.69-0.94-2.28-1.28-3-2.25
	c-0.3-0.41,0.38-1.92,0-2.25c-0.19-0.16-1.39,0.21-1.49,0c-0.67-1.29-0.67-3.06-1.5-4.49c-0.37-0.63-1.05-0.86-1.5-1.5
	c-0.66-0.92-0.07-3.59-2.99-2.99c0.09-1.79-0.16-2.96-0.75-4.49c-0.32-0.82-2.17-2.62-2.25-3c-0.17-0.8,0.81-2.15,0.75-3.74
	c-0.01-0.21-1.7-2.21,0-2.25c-0.19-0.81-1.49-0.51-1.5-1.5c1.39-3.34,0.73-7.3,1.5-11.23c0.34-1.76,1.77-3.44,2.25-5.24
	c0.29-1.11,0.5-3.06,0.74-4.5c0.68-3.91,1.16-8.24,0.75-12.729c0.85,0.06,0.44-1.01,0.75-1.49c0.12-0.19,1.51-0.79,1.5-0.75
	c0.25-0.76,0.88-5.16,0.75-5.99c-0.05-0.3-0.89-0.66-0.75-1.5c0.04-0.27,1.67,0.2,1.5-0.75c-0.03-0.15-0.97-0.01-0.75-0.75
	c0.6-1.99,0.89-2.68,1.5-4.49c0.39-1.17,1.74-1.89,2.24-3c0.46-1.01,0.73-1.81,1.5-2.99c0.96-1.47,1.7-3.83,2.25-4.49
	c1.25-1.53,4.1-2.41,5.99-4.5c0.24-0.27-0.26-1.24,0-1.5c0.23-0.23,1.28,0.26,1.5,0c0.49-0.58,0.32-1.65,0.74-2.24
	c0.46-0.63,1.03-0.82,1.5-1.5c0.21-0.3-0.25-1.24,0-1.5c0.23-0.23,1.31,0.25,1.5,0c0.47-0.61,0.13-1.84,0.75-2.24
	c1.42-0.94,3.29-0.25,5.24-0.75c2.32-0.59,2.99-1.6,4.49-1.5c2.85,0.2,4.89,1.77,6.74,2.99c0.86,0.57,2.31,0.87,3,1.5
	c0.52,0.48,0.81,2.4,1.5,3c0.59,0.52,2.1,0.74,2.99,1.5c1.46,1.23,1.7,3.71,4.49,2.24c-0.52,1.33,0.48,1.78,0.75,2.25
	c0.19,0.32,0.25,1.1,0,0.75c0.59,0.83,1.61,0.08,2.25,0.75c0.48,0.5,0.41,2.46,0.75,2.99c0.39,0.6,1.22-0.28,1.5,0.75
	c0.58,2.17,3.01,2.45,3.74,5.24c2.96-0.96,1.53,2.47,4.49,1.5c0.54,3.08,1.47,5.98,3.75,7.49c0.08,0.05,1.37,0.62,1.5,0.75
	c0.9,0.92,0.71,2.23,1.49,2.99c0.85,0.82,1.25-0.09,2.25,0.75c1.1,0.92,1.56,3.2,3,4.49c0.46,0.42,1.07,0.34,1.49,0.75
	c0.11,0.1,0.7,0.72,0.75,0.75c1.15,0.79,3,0.93,3,3.75c3.62,1.62,7.06,3.42,8.98,6.74c2.66-1.32,1.84,0.49,4.5,0.74
	c-0.01,2,2.36,1.63,2.24,3.75c2.33,0.98,2.14-0.2,5.24,0c0.75,2.89,4.76,2.67,7.49,4.49c1.31,0.87,2.02,2.34,4.5,3
	c0.58,0.15,0.76,0.43,2.24,0c0.07,1.92,2.93,1.07,3,2.99c1.8,0.31,1.63-1.37,3.74-0.75c-0.4,3.21,2.77,2.43,5.24,3.75
	c-0.22-0.12,1.61,0.9,1.5,0.75c0.14,0.19-0.18,1.41,0,1.49c1.02,0.49,1.2-0.73,1.5-0.74c0.89-0.05,0.39,0.65,0.75,0.74
	c1.43,0.38,3.09,1.32,4.49,2.25c0.76,0.5,1.81-0.01,1.5,1.5c2.8,0.07,2.13,0.84,4.49,0c2.66,3.06,6.99,4.12,10.49,6.74
	c1.22,0.92,2.44,1.09,4.49,2.24c1.66,0.95,5.5,3.13,9.73,3c1.17,1.08,2.61,1.89,3,3.74c6.39,1.28,8.49,5.07,16.47,5.99
	c1.22,4.68,6.62,3.46,10.49,4.5c1.4,0.37,2.81,1.66,4.49,2.24c0.89,0.31,2.08-0.25,2.99,0c0.58,0.16,1.31,1.47,1.5,1.5
	c0.53,0.09,4.24-0.93,6.74-0.75c0.92,0.07,2.79,0.45,3.75,0.75c0.9,0.29,2.02,1.46,2.24,1.5c0.39,0.07,1.38-0.75,2.25-0.75
	c1.38,0,3.72,2.03,4.49-0.75c0.62,3.22,3.76,0.36,6.74,0.75c0.25,0.03,0.72,0.79,1.5,0.75c1.37-0.07,3.11-0.81,4.49-0.75
	c0.26,0.01,2.13,1.49,2.25,1.5c1.28,0.13,2.43-0.86,3.74-0.75c1.79,0.14,4.15,0.59,7.49,0.75c0.55,0.03,0.81,0.93,1.5,0.75
	c0.23-0.06-0.03-0.88,0.75-0.75c1.59,0.27,1.07,1.03,2.24,1.5c3.03,1.19,7.08,0.32,10.49,0.74c0.23,0.03,3.07,0.03,2.99,0
	c0.98,0.28,1.19,1.3,2.25,1.5c4.9,0.92,10.05,0.82,14.98,1.5c1.9,1.4,0.34,1.59,2.24,3c4.24-1.95,7.61,1.32,10.49,0.74
	c0.75-0.15,1.68,1.21,2.24,2.25c5.84-2.19,13.85,3.14,20.22-0.75c2.4,2.51,3.14,0.36,6.74,0c1.06-0.1,3.11,0.73,3,0.75
	c1.479-0.24,1.82-2,5.24-1.5c1.22,0.18,1.409,2.11,2.989,1.5c-0.359,2.24,0.851,3.21,0.75,5.24c-0.109,2.4-2.06,4.21-2.239,5.99
	c-0.17,1.6,2.33,3.55,0,3.75c2.17,2.2,5.6,0.85,9.729,2.24c1,0.34,1.93,1.34,3,1.5c2.101,0.32,6.41-2.05,8.98,0.75
	c1.68-0.52,4.04-2.95,6.74-2.99c1.18-0.02,3.149,1.24,4.5,1.49c0.51,0.1,1.279-1.15,2.239-0.75c0.12,0.05,0.761,1.5,0.75,1.5
	c0.86,0.04,1.11-1.42,1.5-1.5c0.561-0.1,0.771,0.91,1.5,0.75c1.3-0.27,2.7-1.38,3.74-1.49c3.47-0.38,6.95,0.27,10.479,0
	c1.761-0.14,4.041-1.45,6-1.5c2.74-0.08,2.541,1.06,5.24,0c0.34-0.14,1.53-0.43,2.24-0.75c2.6-1.16,5.61-3.06,10.49-3.75
	c5.08-0.71,11.01-0.61,15.72-0.74c2.3-0.07,3.15,1.58,4.5-0.75c2.18,1.65,5.19,0.94,7.48,1.49c2.05,0.5,3.979,1.81,6,2.25
	c3.22,0.7,7.21,0.57,10.479,0.75c2.11,0.11,3.66-1.47,5.24,0c1.5,1.39,0.25,1.06,3.74,0.75c1.96-0.18,4.539-0.14,6,0.75
	c1.83,1.13,2.47-0.5,5.239,0c2.07,0.37,5.431,1.22,7.49,2.24c1.28,0.64,2.06,0.75,2.24,2.25c2.05-0.9,4.41-1.22,6.74-2.25
	c1.739-0.76,5.18-3.74,7.489-3.74c0.511,0,0.87,0.98,1.5,0.75c2.051-0.76,4.021-2.03,5.99-3c3.99-1.96,7.57-3.89,11.98-5.99
	c1.43-0.68,3.359-2.93,5.239-1.49c-0.87-2.2,2.05-1.3,3-2.25c0.21-0.21-0.239-1.34,0-1.5c0.931-0.61,2.681-0.23,3.74-0.75
	c0.88-0.43,1.5-1.79,2.25-2.24c1.73-1.07,3.71-1.86,5.24-3c0.97-0.73,2.03-2.14,3-3c1.89-1.68,3.859-2.1,4.49-5.24
	c4.64-0.76,5.608-5.21,8.979-7.49c0.88-0.59,1.94-0.39,3-0.74c1.17,0.16,0.25-1.74,0.75-2.25c0.851-0.87,8.49-3.5,12.73-4.49
	c2.619-0.61,6.05,0.11,8.979,0.75c0.99,1.33,1.74-0.29,0.75,0c1.681-0.48,4.33-0.71,6.74-1.5c1.63-0.54,3.06-2.1,4.5-2.25
	C674.88,198.67,676.85,199.8,679.2,199.67z"/>
</svg>
